<svg width="246" height="56" viewBox="0 0 246 56" fill="none" xmlns="http://www.w3.org/2000/svg">
<path d="M19.3109 51.896C21.6948 54.0827 25.5599 54.0827 27.9438 51.896C30.3277 49.7094 30.3277 46.1641 27.9438 43.9775L12.9531 30.2272C10.5691 28.0405 6.70406 28.0405 4.32014 30.2272C1.93623 32.4138 1.93623 35.9591 4.32014 38.1457L19.3109 51.896Z" fill="url(#paint0_linear_250_55)"/>
<path d="M27.9402 24.3439C30.3241 22.1572 30.3241 18.6119 27.9402 16.4253C25.5563 14.2386 21.6912 14.2387 19.3073 16.4253L4.31655 30.1756C1.93263 32.3623 1.93263 35.9075 4.31655 38.0942C6.70046 40.2808 10.5655 40.2808 12.9495 38.0942L27.9402 24.3439Z" fill="url(#paint1_linear_250_55)"/>
<path d="M63.5188 25.6698C65.9028 23.4832 65.9028 19.9379 63.5188 17.7513C61.1349 15.5646 57.2699 15.5646 54.8859 17.7513L39.8952 31.5016C37.5113 33.6882 37.5112 37.2335 39.8952 39.4201C42.2791 41.6068 46.1442 41.6068 48.5281 39.4201L63.5188 25.6698Z" fill="url(#paint2_linear_250_55)"/>
<path d="M54.881 25.6281C57.2649 27.8147 61.13 27.8147 63.5139 25.6281C65.8978 23.4414 65.8978 19.8962 63.5139 17.7095L48.5231 3.95925C46.1392 1.7726 42.2741 1.7726 39.8902 3.95925C37.5063 6.1459 37.5063 9.69115 39.8902 11.8778L54.881 25.6281Z" fill="url(#paint3_linear_250_55)"/>
<path d="M103.852 8.16654H105.336C105.735 8.16573 106.13 8.23718 106.499 8.3768C106.867 8.51643 107.202 8.72148 107.484 8.98018C107.766 9.23887 107.99 9.54613 108.142 9.88429C108.294 10.2224 108.372 10.5849 108.371 10.9507V28.757C108.387 30.5716 107.997 32.3699 107.225 34.0407C106.483 35.6573 105.409 37.1278 104.061 38.3717C102.707 39.6089 101.103 40.5924 99.3395 41.2672C97.5144 41.9656 95.5566 42.3252 93.5791 42.3252C91.6016 42.3252 89.6438 41.9656 87.8187 41.2672C86.0548 40.5924 84.4511 39.6089 83.0971 38.3717C81.7491 37.1278 80.6751 35.6573 79.9336 34.0407C79.1648 32.369 78.7747 30.5713 78.7869 28.757V10.9507C78.786 10.5849 78.8639 10.2224 79.0161 9.88429C79.1684 9.54613 79.3919 9.23887 79.6739 8.98018C79.956 8.72148 80.2909 8.51643 80.6596 8.3768C81.0283 8.23718 81.4234 8.16573 81.8222 8.16654H83.3129C84.1179 8.16654 84.89 8.45986 85.4592 8.98199C86.0285 9.50412 86.3482 10.2123 86.3482 10.9507V28.757C86.3482 30.5095 87.1072 32.1902 88.4582 33.4294C89.8092 34.6686 91.6415 35.3648 93.5521 35.3648C95.4627 35.3648 97.295 34.6686 98.646 33.4294C99.997 32.1902 100.756 30.5095 100.756 28.757V10.9507C100.756 10.5804 100.836 10.2137 100.993 9.87224C101.149 9.53077 101.378 9.22133 101.666 8.96205C101.955 8.70278 102.297 8.49886 102.672 8.36227C103.047 8.22567 103.448 8.15913 103.852 8.16654Z" fill="url(#paint4_linear_250_55)"/>
<path d="M137.841 42.3005H136.35C135.545 42.3005 134.773 42.0072 134.204 41.485C133.635 40.9629 133.315 40.2547 133.315 39.5163V28.757C133.318 27.8733 133.128 26.9981 132.755 26.1832C132.395 25.394 131.873 24.6756 131.217 24.0673C129.855 22.8374 128.02 22.1481 126.108 22.1481C124.196 22.1481 122.361 22.8374 120.998 24.0673C120.342 24.6756 119.82 25.394 119.46 26.1832C119.088 26.9981 118.897 27.8733 118.901 28.757V39.5163C118.901 39.8822 118.824 40.2446 118.671 40.5827C118.519 40.9209 118.296 41.2281 118.014 41.4868C117.731 41.7455 117.397 41.9506 117.028 42.0902C116.659 42.2298 116.264 42.3013 115.865 42.3005H114.375C113.57 42.3005 112.797 42.0072 112.228 41.485C111.659 40.9629 111.339 40.2547 111.339 39.5163V28.757C111.325 26.9419 111.718 25.1436 112.493 23.4733C113.993 20.2349 116.805 17.6573 120.337 16.284C122.161 15.5858 124.118 15.2263 126.094 15.2263C128.071 15.2263 130.027 15.5858 131.851 16.284C135.396 17.654 138.216 20.2408 139.709 23.4919C140.484 25.1622 140.877 26.9605 140.863 28.7756V39.5349C140.859 40.2684 140.54 40.9709 139.973 41.489C139.407 42.0072 138.641 42.2988 137.841 42.3005Z" fill="url(#paint5_linear_250_55)"/>
<path d="M148.343 42.3004H146.853C146.454 42.3013 146.059 42.2298 145.69 42.0902C145.321 41.9506 144.987 41.7455 144.704 41.4868C144.422 41.2281 144.199 40.9209 144.047 40.5827C143.894 40.2445 143.817 39.8821 143.817 39.5163V10.9507C143.817 10.5849 143.894 10.2225 144.047 9.88432C144.199 9.54616 144.422 9.2389 144.704 8.98021C144.987 8.72151 145.321 8.51646 145.69 8.37683C146.059 8.23721 146.454 8.16576 146.853 8.16657H148.343C149.148 8.16657 149.92 8.45989 150.49 8.98202C151.059 9.50415 151.379 10.2123 151.379 10.9507V39.5163C151.379 40.2547 151.059 40.9629 150.49 41.485C149.92 42.0071 149.148 42.3004 148.343 42.3004Z" fill="url(#paint6_linear_250_55)"/>
<path d="M169.098 15.2075C171.077 15.1953 173.038 15.5553 174.859 16.2654C178.4 17.6404 181.218 20.2256 182.717 23.4733C183.474 25.1483 183.864 26.9438 183.864 28.757C183.864 30.5703 183.474 32.3658 182.717 34.0408C181.22 37.2885 178.401 39.8723 174.859 41.2425C173.034 41.9409 171.076 42.3005 169.098 42.3005C167.121 42.3005 165.163 41.9409 163.338 41.2425C161.574 40.5677 159.97 39.5842 158.616 38.3469C157.268 37.1031 156.194 35.6326 155.453 34.016C154.696 32.341 154.306 30.5456 154.306 28.7323C154.306 26.9191 154.696 25.1236 155.453 23.4486C156.968 20.2125 159.796 17.6435 163.338 16.284C165.157 15.567 167.118 15.2006 169.098 15.2075ZM169.098 35.3648C170.168 35.3664 171.224 35.1498 172.191 34.7307C173.158 34.3116 174.011 33.7005 174.688 32.9417C175.366 32.1829 175.851 31.2953 176.109 30.3433C176.366 29.3913 176.389 28.3987 176.177 27.4374C175.965 26.4761 175.522 25.5701 174.881 24.7851C174.239 24.0001 173.416 23.3558 172.47 22.8988C171.524 22.4417 170.479 22.1835 169.41 22.1427C168.342 22.1019 167.277 22.2795 166.292 22.6628C165.432 22.99 164.648 23.467 163.986 24.0673C163.33 24.6743 162.809 25.3931 162.454 26.1833C161.989 27.1885 161.803 28.2838 161.913 29.3713C162.022 30.4587 162.424 31.5041 163.083 32.414C163.741 33.3239 164.635 34.0697 165.685 34.5847C166.735 35.0997 167.908 35.3678 169.098 35.3648Z" fill="url(#paint7_linear_250_55)"/>
<path d="M212.713 29.5675C213.199 29.5658 213.679 29.6714 214.112 29.8754C214.545 30.0795 214.918 30.3759 215.199 30.7399C215.481 31.1038 215.663 31.5245 215.73 31.9665C215.798 32.4086 215.748 32.8589 215.586 33.2797C215.416 33.7201 215.22 34.1518 214.999 34.5728C214.216 36.0926 213.124 37.4616 211.782 38.6068C210.431 39.7512 208.872 40.6685 207.175 41.3167C205.414 41.9897 203.524 42.3306 201.617 42.319C199.64 42.3318 197.682 41.9717 195.863 41.261C194.101 40.5837 192.497 39.6005 191.141 38.3655C189.798 37.1197 188.726 35.6496 187.985 34.0346C187.223 32.3606 186.831 30.5647 186.831 28.7509C186.831 26.937 187.223 25.1411 187.985 23.4671C189.486 20.2242 192.308 17.6468 195.85 16.284C197.668 15.5733 199.627 15.2132 201.603 15.226C203.511 15.2144 205.401 15.5553 207.161 16.2283C208.857 16.8787 210.416 17.7958 211.768 18.9382C213.11 20.0857 214.202 21.4568 214.986 22.9783C215.208 23.3989 215.404 23.8306 215.573 24.2714C215.735 24.6922 215.784 25.1426 215.717 25.5847C215.65 26.0267 215.467 26.4474 215.186 26.8113C214.904 27.1753 214.531 27.4717 214.098 27.6758C213.666 27.8798 213.186 27.9854 212.699 27.9836H211.026C210.434 27.9892 209.853 27.8334 209.357 27.536C208.861 27.2387 208.473 26.8131 208.241 26.3132C208.153 26.1017 208.051 25.8951 207.937 25.6945C207.546 24.9919 207.015 24.3624 206.372 23.8384C205.725 23.3154 204.986 22.897 204.187 22.6009C203.36 22.2918 202.476 22.1341 201.583 22.1369C199.673 22.143 197.84 22.8335 196.477 24.0611C195.821 24.6694 195.299 25.3878 194.939 26.177C194.384 27.3906 194.234 28.7279 194.507 30.0198C194.781 31.3117 195.467 32.5 196.477 33.4344C197.467 34.3401 198.724 34.9612 200.094 35.2216C201.463 35.4821 202.885 35.3706 204.187 34.9008C204.985 34.6024 205.723 34.1842 206.372 33.6634C207.008 33.1481 207.539 32.5319 207.937 31.8444C208.052 31.6464 208.16 31.436 208.254 31.2257C208.489 30.7214 208.881 30.2924 209.382 29.9928C209.883 29.6933 210.469 29.5367 211.067 29.5428L212.713 29.5675Z" fill="url(#paint8_linear_250_55)"/>
<path d="M223.836 42.3005H222.345C221.946 42.3013 221.551 42.2298 221.182 42.0902C220.814 41.9506 220.479 41.7455 220.197 41.4868C219.915 41.2281 219.691 40.9209 219.539 40.5827C219.387 40.2446 219.309 39.8822 219.31 39.5163V10.9508C219.309 10.5849 219.387 10.2225 219.539 9.88435C219.691 9.54619 219.915 9.23893 220.197 8.98024C220.479 8.72154 220.814 8.51649 221.182 8.37686C221.551 8.23724 221.946 8.16579 222.345 8.1666H223.836C224.641 8.1666 225.413 8.45992 225.982 8.98205C226.551 9.50418 226.871 10.2124 226.871 10.9508V21.8523C226.868 22.3097 226.989 22.7605 227.223 23.1647C227.456 23.5688 227.795 23.9136 228.209 24.1685C228.623 24.4233 229.099 24.5802 229.596 24.6252C230.092 24.6701 230.593 24.6017 231.053 24.4261H231.093C233.697 23.4073 235.77 21.5055 236.881 19.1177C237.137 18.5686 237.338 17.9991 237.481 17.4162C237.63 16.798 238.005 16.2451 238.544 15.849C239.082 15.453 239.752 15.2375 240.442 15.2384H242.108C242.553 15.2382 242.992 15.3276 243.394 15.5002C243.797 15.6727 244.153 15.9243 244.438 16.237C244.723 16.5498 244.93 16.9161 245.044 17.3102C245.157 17.7042 245.175 18.1164 245.096 18.5175C244.787 20.0466 244.238 21.5264 243.464 22.9103C242.671 24.3474 241.663 25.676 240.469 26.8577C239.951 27.3664 239.663 28.0364 239.663 28.7323C239.663 29.4283 239.951 30.0983 240.469 30.607C241.696 31.8152 242.736 33.1725 243.558 34.6409C244.338 36.0279 244.893 37.512 245.204 39.0461C245.286 39.4478 245.269 39.8611 245.157 40.2564C245.044 40.6517 244.838 41.0193 244.552 41.3331C244.267 41.6468 243.91 41.899 243.506 42.0715C243.102 42.2441 242.662 42.3328 242.216 42.3314H240.503C239.813 42.3323 239.143 42.1168 238.604 41.7207C238.066 41.3247 237.691 40.7718 237.542 40.1536C237.399 39.5647 237.198 38.989 236.941 38.4336C235.846 36.0182 233.754 34.0986 231.12 33.0942H231.039C230.579 32.9226 230.08 32.8576 229.586 32.9049C229.091 32.9521 228.617 33.1101 228.205 33.3651C227.794 33.62 227.456 33.964 227.224 34.3667C226.991 34.7694 226.87 35.2184 226.871 35.6742V39.5782C226.853 40.3058 226.526 40.9982 225.958 41.507C225.391 42.0158 224.629 42.3007 223.836 42.3005Z" fill="url(#paint9_linear_250_55)"/>
<path d="M114.361 51.8904C114.138 52.3884 113.802 52.8375 113.376 53.2082C112.938 53.5874 112.422 53.8838 111.859 54.0806C111.241 54.2981 110.584 54.4072 109.923 54.4023H106.813V46.1364H109.943C110.604 46.13 111.26 46.2349 111.879 46.4458C112.442 46.6426 112.958 46.939 113.397 47.3182C113.822 47.6843 114.158 48.1294 114.381 48.6236C114.846 49.6708 114.846 50.8432 114.381 51.8904H114.361ZM113.39 48.9949C113.223 48.6021 112.968 48.2459 112.641 47.9492C112.306 47.6454 111.906 47.4076 111.467 47.2501C110.975 47.0772 110.45 46.9912 109.923 46.9965H107.812V53.5362H109.923C110.45 53.5434 110.974 53.4595 111.467 53.2887C111.906 53.1371 112.306 52.9032 112.641 52.6019C112.963 52.3065 113.218 51.9553 113.39 51.5687C113.741 50.7409 113.741 49.8226 113.39 48.9949Z" fill="url(#paint10_linear_250_55)"/>
<path d="M125.302 46.984H119.805V49.8053H124.722V50.6591H119.805V53.5485H125.369V54.4023H118.793V46.1364H125.302V46.984Z" fill="url(#paint11_linear_250_55)"/>
<path d="M136.128 46.1364H137.221L133.349 54.458H132.445L128.573 46.1364H129.706L132.91 53.2515L136.128 46.1364Z" fill="url(#paint12_linear_250_55)"/>
<path d="M147.44 46.984H141.942V49.8053H146.859V50.6591H141.942V53.5485H147.507V54.4023H140.93V46.1364H147.44V46.984Z" fill="url(#paint13_linear_250_55)"/>
<path d="M151.48 46.1364H152.499V53.5609H157.571V54.4271H151.5L151.48 46.1364Z" fill="url(#paint14_linear_250_55)"/>
<path d="M169.321 51.8904C169.107 52.3952 168.789 52.8574 168.384 53.2515C167.973 53.6525 167.477 53.9725 166.927 54.192C166.336 54.4294 165.696 54.5476 165.051 54.5384C164.133 54.5579 163.231 54.3162 162.469 53.8465C161.707 53.3767 161.122 52.7021 160.795 51.9151C160.576 51.394 160.464 50.8402 160.465 50.2818C160.463 49.7206 160.577 49.1642 160.802 48.6422C161.018 48.1381 161.336 47.6762 161.739 47.281C162.152 46.8818 162.647 46.5622 163.196 46.3406C163.788 46.1061 164.427 45.988 165.072 45.9941C165.691 45.983 166.307 46.0899 166.879 46.3082C167.452 46.5265 167.969 46.8515 168.397 47.2625C168.804 47.6542 169.12 48.1172 169.328 48.6236C169.773 49.6743 169.773 50.8397 169.328 51.8904H169.321ZM168.336 48.9453C168.168 48.5418 167.916 48.172 167.594 47.8564C167.274 47.548 166.892 47.2999 166.468 47.1263C166.023 46.9427 165.539 46.8498 165.051 46.8541C164.562 46.8507 164.077 46.9414 163.628 47.1202C163.207 47.2912 162.828 47.5397 162.515 47.8503C162.199 48.1625 161.951 48.5281 161.787 48.9268C161.436 49.7844 161.436 50.7296 161.787 51.5872C161.953 51.9915 162.205 52.3616 162.529 52.6761C162.847 52.9866 163.23 53.2349 163.655 53.4062C164.099 53.5922 164.583 53.6852 165.072 53.6784C165.561 53.6856 166.047 53.5948 166.495 53.4124C166.919 53.2484 167.299 53.0013 167.608 52.6885C167.923 52.373 168.17 52.0056 168.336 51.6058C168.514 51.1836 168.603 50.7344 168.599 50.2818C168.603 49.8251 168.514 49.3719 168.336 48.9453Z" fill="url(#paint15_linear_250_55)"/>
<path d="M180.201 49.9476C180.018 50.2818 179.755 50.5737 179.432 50.8014C179.093 51.0331 178.711 51.207 178.305 51.3149C177.866 51.4268 177.412 51.483 176.956 51.482H174.764V54.4023H173.752V46.1364H177.125C177.582 46.136 178.036 46.1964 178.474 46.3158C178.861 46.427 179.223 46.6033 179.54 46.8355C179.832 47.0595 180.064 47.3435 180.214 47.6646C180.381 48.0114 180.463 48.387 180.457 48.7659C180.476 49.1729 180.388 49.5782 180.201 49.9476ZM178.798 47.4728C178.281 47.1478 177.663 46.987 177.037 47.0149H174.751V50.6529H176.963C177.308 50.6562 177.651 50.6124 177.982 50.523C178.266 50.4461 178.531 50.3201 178.764 50.1518C178.981 49.998 179.155 49.7985 179.27 49.5702C179.389 49.3358 179.449 49.08 179.445 48.8216C179.47 48.5622 179.424 48.3014 179.31 48.0627C179.197 47.8239 179.021 47.6148 178.798 47.4542V47.4728Z" fill="url(#paint16_linear_250_55)"/>
<path d="M190.777 46.984H185.28V49.8053H190.197V50.6591H185.28V53.5485H190.845V54.4023H184.268V46.1364H190.777V46.984Z" fill="url(#paint17_linear_250_55)"/>
<path d="M201.023 54.4023L198.413 51.1912H195.85V54.4023H194.831V46.1364H198.71C199.167 46.1294 199.622 46.1879 200.059 46.3097C200.432 46.4194 200.779 46.5913 201.084 46.817C201.37 47.0271 201.6 47.2936 201.759 47.5966C201.916 47.9129 201.994 48.2574 201.988 48.605C201.996 48.9219 201.936 49.2372 201.813 49.5331C201.697 49.7984 201.523 50.0387 201.3 50.2384C201.076 50.4462 200.813 50.6159 200.524 50.7396C200.215 50.8768 199.885 50.9726 199.546 51.0242L202.312 54.4023H201.023ZM200.349 47.4295C199.849 47.1132 199.248 46.9606 198.642 46.9964H195.85V50.3622H198.622C198.937 50.3661 199.251 50.3265 199.553 50.2446C199.818 50.1729 200.068 50.0577 200.288 49.9043C200.496 49.764 200.662 49.5791 200.774 49.366C200.893 49.1407 200.953 48.8927 200.949 48.6422C200.959 48.4092 200.908 48.1775 200.8 47.9664C200.692 47.7554 200.531 47.5712 200.329 47.4295H200.349Z" fill="url(#paint18_linear_250_55)"/>
<path d="M206.136 47.9925C206.276 47.8137 206.334 47.5915 206.298 47.3738H205.839V46.1364H207.02V47.2191C207.049 47.608 206.927 47.9939 206.676 48.3081C206.385 48.5861 206.004 48.7705 205.59 48.834L205.441 48.4194C205.71 48.3367 205.95 48.1893 206.136 47.9925Z" fill="url(#paint19_linear_250_55)"/>
<path d="M212.038 48.7226C212.116 48.8957 212.244 49.0457 212.409 49.1557C212.637 49.3091 212.889 49.4281 213.158 49.5083C213.555 49.6393 213.963 49.7406 214.379 49.8115C215.18 49.9352 215.94 50.2275 216.598 50.6653C216.834 50.8483 217.021 51.0783 217.145 51.3379C217.269 51.5974 217.326 51.8795 217.313 52.1626C217.319 52.4983 217.241 52.8308 217.083 53.1339C216.933 53.4205 216.717 53.6738 216.449 53.8764C216.167 54.094 215.839 54.2562 215.485 54.3528C215.085 54.4667 214.669 54.523 214.251 54.5198C213.576 54.5257 212.906 54.4167 212.274 54.1981C211.645 53.9653 211.067 53.6299 210.568 53.2082L211.195 52.5214C211.616 52.8844 212.099 53.1812 212.625 53.4C213.15 53.6029 213.715 53.702 214.284 53.6908C214.806 53.7157 215.322 53.5784 215.748 53.301C215.922 53.1827 216.063 53.0276 216.158 52.8488C216.253 52.67 216.3 52.4728 216.294 52.2739C216.298 52.0943 216.263 51.9158 216.193 51.7481C216.115 51.5802 215.99 51.4348 215.829 51.3273C215.613 51.1771 215.371 51.06 215.114 50.9809C214.732 50.8614 214.342 50.7642 213.947 50.6901C213.488 50.6015 213.037 50.4816 212.598 50.3312C212.254 50.2231 211.935 50.0597 211.654 49.8486C211.413 49.6711 211.221 49.4444 211.094 49.1866C210.966 48.9025 210.904 48.5969 210.912 48.2895C210.907 47.9745 210.983 47.6629 211.134 47.38C211.28 47.1012 211.492 46.8559 211.755 46.6623C212.031 46.4517 212.35 46.292 212.692 46.1921C213.072 46.0726 213.471 46.014 213.873 46.0188C214.462 46.0071 215.049 46.0909 215.606 46.2663C216.125 46.4481 216.61 46.7027 217.043 47.0211L216.449 47.7389C216.07 47.4498 215.642 47.2199 215.181 47.0583C214.749 46.9129 214.292 46.8395 213.832 46.8417C213.562 46.8381 213.293 46.8757 213.036 46.9531C212.819 47.0117 212.616 47.106 212.436 47.2315C212.274 47.3465 212.14 47.492 212.045 47.6584C211.957 47.8244 211.911 48.0061 211.91 48.1905C211.912 48.3741 211.955 48.5553 212.038 48.7226Z" fill="url(#paint20_linear_250_55)"/>
<defs>
<linearGradient id="paint0_linear_250_55" x1="11.6759" y1="35.9709" x2="22.7005" y2="50.9585" gradientUnits="userSpaceOnUse">
<stop stop-color="#A100FF"/>
<stop offset="1" stop-color="#EC00FF"/>
</linearGradient>
<linearGradient id="paint1_linear_250_55" x1="27.7644" y1="15.0553" x2="7.67887" y2="40.1019" gradientUnits="userSpaceOnUse">
<stop stop-color="#A100FF"/>
<stop offset="1" stop-color="#EC00FF"/>
</linearGradient>
<linearGradient id="paint2_linear_250_55" x1="62.5152" y1="18.0069" x2="41.8506" y2="42.0327" gradientUnits="userSpaceOnUse">
<stop stop-color="#A100FF"/>
<stop offset="1" stop-color="#EC00FF"/>
</linearGradient>
<linearGradient id="paint3_linear_250_55" x1="38.1022" y1="14.7916" x2="65.3055" y2="14.7916" gradientUnits="userSpaceOnUse">
<stop stop-color="#A100FF"/>
<stop offset="1" stop-color="#EC00FF"/>
</linearGradient>
<linearGradient id="paint4_linear_250_55" x1="106.381" y1="-10.4812" x2="95.6104" y2="20.9107" gradientUnits="userSpaceOnUse">
<stop stop-color="#A100FF"/>
<stop offset="1" stop-color="#EC00FF"/>
</linearGradient>
<linearGradient id="paint5_linear_250_55" x1="139.278" y1="0.804019" x2="128.513" y2="32.1953" gradientUnits="userSpaceOnUse">
<stop stop-color="#A100FF"/>
<stop offset="1" stop-color="#EC00FF"/>
</linearGradient>
<linearGradient id="paint6_linear_250_55" x1="155.318" y1="6.30427" x2="144.547" y2="37.6961" gradientUnits="userSpaceOnUse">
<stop stop-color="#A100FF"/>
<stop offset="1" stop-color="#EC00FF"/>
</linearGradient>
<linearGradient id="paint7_linear_250_55" x1="175.439" y1="13.2029" x2="164.668" y2="44.6008" gradientUnits="userSpaceOnUse">
<stop stop-color="#A100FF"/>
<stop offset="1" stop-color="#EC00FF"/>
</linearGradient>
<linearGradient id="paint8_linear_250_55" x1="203.944" y1="22.9845" x2="193.179" y2="54.3758" gradientUnits="userSpaceOnUse">
<stop stop-color="#A100FF"/>
<stop offset="1" stop-color="#EC00FF"/>
</linearGradient>
<linearGradient id="paint9_linear_250_55" x1="229.609" y1="31.7887" x2="218.844" y2="63.1799" gradientUnits="userSpaceOnUse">
<stop stop-color="#A100FF"/>
<stop offset="1" stop-color="#EC00FF"/>
</linearGradient>
<linearGradient id="paint10_linear_250_55" x1="151.891" y1="11.6747" x2="124.439" y2="41.3272" gradientUnits="userSpaceOnUse">
<stop stop-color="#A100FF"/>
<stop offset="1" stop-color="#EC00FF"/>
</linearGradient>
<linearGradient id="paint11_linear_250_55" x1="158.158" y1="17.4781" x2="130.706" y2="47.1307" gradientUnits="userSpaceOnUse">
<stop stop-color="#A100FF"/>
<stop offset="1" stop-color="#EC00FF"/>
</linearGradient>
<linearGradient id="paint12_linear_250_55" x1="162.576" y1="21.5615" x2="135.124" y2="51.2141" gradientUnits="userSpaceOnUse">
<stop stop-color="#A100FF"/>
<stop offset="1" stop-color="#EC00FF"/>
</linearGradient>
<linearGradient id="paint13_linear_250_55" x1="169.125" y1="27.631" x2="141.68" y2="57.283" gradientUnits="userSpaceOnUse">
<stop stop-color="#A100FF"/>
<stop offset="1" stop-color="#EC00FF"/>
</linearGradient>
<linearGradient id="paint14_linear_250_55" x1="174.232" y1="32.3579" x2="146.786" y2="62.01" gradientUnits="userSpaceOnUse">
<stop stop-color="#A100FF"/>
<stop offset="1" stop-color="#EC00FF"/>
</linearGradient>
<linearGradient id="paint15_linear_250_55" x1="179.452" y1="37.19" x2="152.007" y2="66.842" gradientUnits="userSpaceOnUse">
<stop stop-color="#A100FF"/>
<stop offset="1" stop-color="#EC00FF"/>
</linearGradient>
<linearGradient id="paint16_linear_250_55" x1="184.187" y1="41.5704" x2="156.742" y2="71.2224" gradientUnits="userSpaceOnUse">
<stop stop-color="#A100FF"/>
<stop offset="1" stop-color="#EC00FF"/>
</linearGradient>
<linearGradient id="paint17_linear_250_55" x1="190.595" y1="47.5037" x2="163.15" y2="77.1558" gradientUnits="userSpaceOnUse">
<stop stop-color="#A100FF"/>
<stop offset="1" stop-color="#EC00FF"/>
</linearGradient>
<linearGradient id="paint18_linear_250_55" x1="196.039" y1="52.5462" x2="168.594" y2="82.1983" gradientUnits="userSpaceOnUse">
<stop stop-color="#A100FF"/>
<stop offset="1" stop-color="#EC00FF"/>
</linearGradient>
<linearGradient id="paint19_linear_250_55" x1="198.197" y1="54.5384" x2="170.752" y2="84.1907" gradientUnits="userSpaceOnUse">
<stop stop-color="#A100FF"/>
<stop offset="1" stop-color="#EC00FF"/>
</linearGradient>
<linearGradient id="paint20_linear_250_55" x1="203.748" y1="59.6736" x2="176.296" y2="89.3262" gradientUnits="userSpaceOnUse">
<stop stop-color="#A100FF"/>
<stop offset="1" stop-color="#EC00FF"/>
</linearGradient>
</defs>
</svg>
